HIERARCHY
ROOT Hips
{
	OFFSET	0.00	0.00	0.00
	CHANNELS 6 Xposition Yposition Zposition Zrotation Xrotation Yrotation
	JOINT LeftUpLeg
	{
		OFFSET	 0.126116	-0.014019	-0.065224
		CHANNELS 3 Zrotation Xrotation Yrotation
		JOINT LeftLeg
		{
			OFFSET	 0.000000	 0.000000	 0.569914
			CHANNELS 3 Zrotation Xrotation Yrotation
			JOINT LeftFoot
			{
				OFFSET	 0.000000	 0.000000	 0.544423
				CHANNELS 3 Zrotation Xrotation Yrotation
				JOINT LeftToeBase
				{
					OFFSET	 0.000000	 0.000000	 0.207117
					CHANNELS 3 Zrotation Xrotation Yrotation
					End Site
					{
						OFFSET	 0.000000	 0.000000	 0.207117
					}
				}
			}
		}
	}
	JOINT RightUpLeg
	{
		OFFSET	-0.124023	-0.008373	-0.065224
		CHANNELS 3 Zrotation Xrotation Yrotation
		JOINT RightLeg
		{
			OFFSET	 0.000000	 0.000000	 0.570047
			CHANNELS 3 Zrotation Xrotation Yrotation
			JOINT RightFoot
			{
				OFFSET	 0.000000	 0.000000	 0.544354
				CHANNELS 3 Zrotation Xrotation Yrotation
				JOINT RightToeBase
				{
					OFFSET	 0.000000	 0.000000	 0.207540
					CHANNELS 3 Zrotation Xrotation Yrotation
					End Site
					{
						OFFSET	 0.000000	 0.000000	 0.207540
					}
				}
			}
		}
	}
	JOINT Spine
	{
		OFFSET	 0.000184	-0.007763	 0.117403
		CHANNELS 3 Zrotation Xrotation Yrotation
		JOINT Spine1
		{
			OFFSET	 0.000000	 0.000000	 0.137269
			CHANNELS 3 Zrotation Xrotation Yrotation
			JOINT Spine2
			{
				OFFSET	 0.000000	 0.000000	 0.156879
				CHANNELS 3 Zrotation Xrotation Yrotation
				JOINT LeftShoulder
				{
					OFFSET	 0.080501	-0.002496	 0.160144
					CHANNELS 3 Zrotation Xrotation Yrotation
					JOINT LeftArm
					{
						OFFSET	 0.000000	 0.000000	 0.164363
						CHANNELS 3 Zrotation Xrotation Yrotation
						JOINT LeftForeArm
						{
							OFFSET	 0.000000	 0.000000	 0.364576
							CHANNELS 3 Zrotation Xrotation Yrotation
							JOINT LeftHand
							{
								OFFSET	 0.000000	 0.000000	 0.360812
								CHANNELS 3 Zrotation Xrotation Yrotation
								JOINT LeftHandIndex1
								{
									OFFSET	 0.000000	 0.000000	 0.086006
									CHANNELS 3 Zrotation Xrotation Yrotation
									JOINT LeftHandIndex2
									{
										OFFSET	 0.000000	 0.000000	 0.047236
										CHANNELS 3 Zrotation Xrotation Yrotation
										JOINT LeftHandIndex3
										{
											OFFSET	-0.004284	-0.000551	 0.038166
											CHANNELS 3 Zrotation Xrotation Yrotation
											End Site
											{
												OFFSET	-0.004284	-0.000551	 0.038166
											}
										}
									}
								}
							}
						}
					}
				}
				JOINT Neck
				{
					OFFSET	 0.000000	 0.000000	 0.176489
					CHANNELS 3 Zrotation Xrotation Yrotation
					JOINT Head
					{
						OFFSET	 0.000000	-0.001747	 0.077940
						CHANNELS 3 Zrotation Xrotation Yrotation
						End Site
						{
							OFFSET	 0.000000	-0.001747	 0.077940
						}
					}
				}
				JOINT RightShoulder
				{
					OFFSET	-0.080363	 0.000306	 0.159706
					CHANNELS 3 Zrotation Xrotation Yrotation
					JOINT RightArm
					{
						OFFSET	 0.000000	 0.000000	 0.164196
						CHANNELS 3 Zrotation Xrotation Yrotation
						JOINT RightForeArm
						{
							OFFSET	 0.000000	 0.000000	 0.365611
							CHANNELS 3 Zrotation Xrotation Yrotation
							JOINT RightHand
							{
								OFFSET	 0.000000	 0.000000	 0.360648
								CHANNELS 3 Zrotation Xrotation Yrotation
								JOINT RightHandIndex1
								{
									OFFSET	 0.000000	 0.000000	 0.069977
									CHANNELS 3 Zrotation Xrotation Yrotation
									JOINT RightHandIndex2
									{
										OFFSET	 0.000000	 0.000000	 0.052305
										CHANNELS 3 Zrotation Xrotation Yrotation
										JOINT RightHandIndex3
										{
											OFFSET	 0.009002	-0.000782	 0.042196
											CHANNELS 3 Zrotation Xrotation Yrotation
											End Site
											{
												OFFSET	 0.009002	-0.000782	 0.042196
											}
										}
									}
								}
							}
						}
					}
				}
			}
		}
	}
}
MOTION
Frames:    8
Frame Time: 0.03333334
 4.326327	 0.079212	-0.757418	 99.143250	-2.131971	 0.315931	 6.716411	-3.165061	-178.821300	-2.297963	-36.071780	 1.426447	 6.937944	 89.598950	-5.667368	-2.376054	 30.445310	-0.043676	 1.444976	-28.681720	 179.413200	 23.336760	-74.153920	 26.818150	 168.054800	 89.697400	-160.806600	 2.379010	 29.587350	 0.026151	 35.760660	 4.340124	 1.056883	-1.267032	-1.912450	 1.039442	-0.262704	-4.644394	-0.027949	-91.801760	 77.967430	 178.933100	 35.813380	 63.924270	-47.165090	-7.395327	-5.153243	-30.746720	-2.987125	-3.015914	-5.753476	-3.812334	 37.924440	-2.927599	-2.450526	 36.184240	 0.754587	-1.378229	 35.397820	-2.634230	-0.309136	 4.026348	-1.733160	 0.323246	-11.761920	-1.557772	 89.794910	 78.858660	 179.552900	-41.880870	 71.332440	 44.147440	-0.140479	-8.405526	 27.169920	-6.509240	-3.633428	 10.072820	 6.437017	 35.671460	-0.771858	 2.830251	 35.756010	-7.813440	-2.350882	 35.473990	 5.254307
 4.348799	 0.084644	-0.759157	 99.254390	-2.058492	-0.015191	 6.366184	-1.547899	-178.306100	-2.618335	-35.000660	 1.151742	 25.697330	 89.951550	-24.803870	-2.376462	 30.369670	-0.042001	 1.692362	-30.275830	 179.510800	 19.398570	-71.487460	 22.813870	 179.777300	 88.990310	-172.380900	 2.378333	 29.722910	 0.029128	 34.998380	 4.342559	 1.409132	-1.351731	-1.957439	 1.017415	-0.269207	-4.696227	-0.028763	-91.792650	 78.187290	 178.880400	 35.587300	 63.300490	-47.737940	-6.570866	-5.770365	-32.529790	-2.531242	-4.069211	-5.833921	-3.812334	 37.924440	-2.927599	-2.450526	 36.184240	 0.754587	-1.378229	 35.397820	-2.634230	-0.324662	 4.062135	-1.970605	 0.397105	-11.899420	-1.405590	 89.791410	 78.640070	 179.509800	-41.779210	 71.384070	 43.639110	-0.757945	-8.939067	 28.597220	-6.693143	-4.696096	 10.158230	 6.437017	 35.671460	-0.771858	 2.830251	 35.756010	-7.813440	-2.350882	 35.473990	 5.254307
 4.377503	 0.091334	-0.760831	 99.390860	-1.851028	-0.403098	 6.082051	 0.775577	-177.680000	-2.936896	-32.964590	 0.977005	 35.532630	 89.928670	-34.882980	-2.376393	 30.382880	-0.042288	 1.912834	-31.939870	 179.683300	 15.399390	-67.513250	 18.588330	-176.914200	 88.806470	-175.514500	 2.377707	 29.846760	 0.031858	 33.890230	 4.302135	 1.853776	-1.448624	-2.015399	 0.987851	-0.287089	-4.760024	-0.030833	-91.779270	 78.467610	 178.816000	 35.239800	 62.581990	-48.383770	-5.535923	-6.640297	-34.617280	-1.853862	-5.451227	-5.919352	-3.812334	 37.924440	-2.927599	-2.450526	 36.184240	 0.754587	-1.378229	 35.397820	-2.634230	-0.348538	 4.134446	-2.255033	 0.471989	-12.097040	-1.271491	 89.785730	 78.362870	 179.474800	-41.688600	 71.458420	 43.118540	-1.531145	-9.628053	 30.224210	-6.960261	-6.118491	 10.249650	 6.437017	 35.671460	-0.771858	 2.830251	 35.756010	-7.813440	-2.350882	 35.473990	 5.254307
 4.394006	 0.095016	-0.761630	 99.461130	-1.721182	-0.573247	 5.999629	 2.234319	-177.410300	-3.082551	-31.480060	 0.944233	 17.842760	 89.810260	-17.236850	-2.375600	 30.530620	-0.045575	 1.995388	-32.765870	 179.747100	 13.611350	-65.000430	 16.603820	-174.647200	 88.941860	-177.676600	 2.377727	 29.842710	 0.031769	 33.186340	 4.262460	 2.054809	-1.494037	-2.041929	 0.971481	-0.301342	-4.788020	-0.032434	-91.772700	 78.592240	 178.787800	 35.055470	 62.195760	-48.739480	-5.020528	-7.120066	-35.729230	-1.529700	-6.276711	-5.957725	-3.812334	 37.924440	-2.927599	-2.450526	 36.184240	 0.754587	-1.378229	 35.397820	-2.634230	-0.361460	 4.183466	-2.399301	 0.500439	-12.201250	-1.228910	 89.782850	 78.235050	 179.461700	-41.653630	 71.507330	 42.884450	-1.970624	-10.024590	 31.053250	-7.134378	-6.966797	 10.292330	 6.437017	 35.671460	-0.771858	 2.830251	 35.756010	-7.813440	-2.350882	 35.473990	 5.254307
 4.416236	 0.099839	-0.762554	 99.542470	-1.536129	-0.730947	 5.985007	 4.323635	-177.123300	-3.306511	-29.155290	 0.938633	 11.539040	 89.599440	-10.931980	-2.373318	 30.941110	-0.054745	 2.097475	-33.677140	 179.768800	 11.695940	-61.448630	 14.389460	-169.965500	 89.144300	 177.803900	 2.379594	 29.470220	 0.023567	 32.173190	 4.191740	 2.246108	-1.534192	-2.070911	 0.954221	-0.317492	-4.816586	-0.034254	-91.765680	 78.719700	 178.764000	 34.856790	 61.701530	-49.211910	-4.410884	-7.725198	-37.119820	-1.183724	-7.415934	-5.995791	-3.812334	 37.924440	-2.927599	-2.450526	 36.184240	 0.754587	-1.378229	 35.397820	-2.634230	-0.368318	 4.250857	-2.564769	 0.524850	-12.325300	-1.197234	 89.779980	 78.113140	 179.450500	-41.613490	 71.583150	 42.629840	-2.557888	-10.552510	 32.035350	-7.396402	-8.136757	 10.337230	 6.437017	 35.671460	-0.771858	 2.830251	 35.756010	-7.813440	-2.350882	 35.473990	 5.254307
 4.441259	 0.104909	-0.763472	 99.618460	-1.303475	-0.841624	 6.174146	 6.827377	-177.001300	-3.464279	-26.133440	 1.052543	 8.420837	 89.112870	-7.565554	-2.369357	 31.621940	-0.070080	 2.249200	-34.496080	 179.739400	 10.051720	-57.336690	 12.408310	-161.024300	 89.357150	 169.075200	 2.383969	 28.543170	 0.003342	 30.956860	 4.080575	 2.386418	-1.549181	-2.121011	 0.945998	-0.321264	-4.839636	-0.034726	-91.760930	 78.802830	 178.756400	 34.669620	 61.210820	-49.689380	-3.774438	-8.394760	-38.523340	-0.814000	-8.752586	-6.016174	-3.812334	 37.924440	-2.927599	-2.450526	 36.184240	 0.754587	-1.378229	 35.397820	-2.634230	-0.350102	 4.320031	-2.729320	 0.546676	-12.436700	-1.180234	 89.778060	 78.029990	 179.447700	-41.562540	 71.685690	 42.407280	-3.216269	-11.130710	 32.946520	-7.733859	-9.483889	 10.369280	 6.437017	 35.671460	-0.771858	 2.830251	 35.756010	-7.813440	-2.350882	 35.473990	 5.254307
 4.464145	 0.109221	-0.764213	 99.684840	-1.079311	-0.923125	 6.547105	 9.224171	-177.041500	-3.527541	-23.025560	 1.235567	 6.386636	 88.254140	-5.032151	-2.364527	 32.398870	-0.087802	 2.396479	-34.994350	 179.692200	 8.799813	-53.603040	 10.860060	-148.797800	 89.492550	 156.987700	 2.387471	 27.729230	-0.014206	 29.780840	 3.948071	 2.484110	-1.538034	-2.178419	 0.950089	-0.305786	-4.853477	-0.033088	-91.757840	 78.857920	 178.753500	 34.519170	 60.848220	-50.067150	-3.211081	-9.019270	-39.644310	-0.435702	-9.968860	-6.017377	-3.812334	 37.924440	-2.927599	-2.450526	 36.184240	 0.754587	-1.378229	 35.397820	-2.634230	-0.310960	 4.369409	-2.866557	 0.576345	-12.507570	-1.164929	 89.776810	 77.975430	 179.452300	-41.502330	 71.796560	 42.250470	-3.821537	-11.635440	 33.590950	-8.085289	-10.733350	 10.380590	 6.437017	 35.671460	-0.771858	 2.830251	 35.756010	-7.813440	-2.350882	 35.473990	 5.254307
 4.488494	 0.114021	-0.765096	 99.764800	-0.861962	-1.024296	 7.069805	 12.469530	-176.920700	-3.740921	-18.594920	 1.397356	 4.674969	 86.714430	-2.591656	-2.357982	 33.377720	-0.110445	 2.656827	-35.310210	 179.706300	 7.514237	-49.835080	 9.393474	-144.719200	 89.580350	 152.907700	 2.388671	 27.433740	-0.020534	 28.483050	 3.794419	 2.590356	-1.512304	-2.234434	 0.965587	-0.274572	-4.860482	-0.029724	-91.755150	 78.904080	 178.748000	 34.376710	 60.577160	-50.403880	-2.681577	-9.663598	-40.651110	-0.025230	-11.250190	-5.998121	-3.812334	 37.924440	-2.927599	-2.450526	 36.184240	 0.754587	-1.378229	 35.397820	-2.634230	-0.258095	 4.400303	-2.993677	 0.619354	-12.544750	-1.137377	 89.775860	 77.930010	 179.456900	-41.433440	 71.926470	 42.136130	-4.470832	-12.129510	 34.067500	-8.499763	-12.049000	 10.373520	 6.437017	 35.671460	-0.771858	 2.830251	 35.756010	-7.813440	-2.350882	 35.473990	 5.254307
